<?xml version="1.0" encoding="UTF-8" standalone="no"?>
<!-- Created with Inkscape (http://www.inkscape.org/) -->

<svg
   xmlns:dc="http://purl.org/dc/elements/1.1/"
   xmlns:cc="http://creativecommons.org/ns#"
   xmlns:rdf="http://www.w3.org/1999/02/22-rdf-syntax-ns#"
   xmlns:svg="http://www.w3.org/2000/svg"
   xmlns="http://www.w3.org/2000/svg"
   xmlns:sodipodi="http://sodipodi.sourceforge.net/DTD/sodipodi-0.dtd"
   xmlns:inkscape="http://www.inkscape.org/namespaces/inkscape"
   width="150mm"
   height="150mm"
   viewBox="0 0 150 150"
   version="1.1"
   id="svg4685"
   sodipodi:docname="rejilla2.svg"
   inkscape:version="0.92.4 (5da689c313, 2019-01-14)">
  <metadata
     id="metadata107">
    <rdf:RDF>
      <cc:Work
         rdf:about="">
        <dc:format>image/svg+xml</dc:format>
        <dc:type
           rdf:resource="http://purl.org/dc/dcmitype/StillImage" />
      </cc:Work>
    </rdf:RDF>
  </metadata>
  <defs
     id="defs105" />
  <sodipodi:namedview
     pagecolor="#ffffff"
     bordercolor="#666666"
     borderopacity="1"
     objecttolerance="10"
     gridtolerance="10"
     guidetolerance="10"
     inkscape:pageopacity="0"
     inkscape:pageshadow="2"
     inkscape:window-width="1920"
     inkscape:window-height="1017"
     id="namedview103"
     showgrid="false"
     inkscape:zoom="2.3548227"
     inkscape:cx="-60.643378"
     inkscape:cy="317.04132"
     inkscape:window-x="-8"
     inkscape:window-y="-8"
     inkscape:window-maximized="1"
     inkscape:current-layer="layer3" />
  <g
     id="layer1"
     transform="translate(0,-147)"
     style="display:inline">
    <g
       id="g177"
       style="display:inline;stroke-width:0.2;stroke-miterlimit:4;stroke-dasharray:none"
       transform="translate(4.8097087,0.04283)">
      <path
         id="path5310"
         d="m 0.22556077,286.85895 129.99986923,-0.098 v 0"
         style="fill:none;stroke:#000000;stroke-width:0.19644718;stroke-linecap:butt;stroke-linejoin:miter;stroke-miterlimit:4;stroke-dasharray:none;stroke-opacity:1"
         inkscape:connector-curvature="0" />
      <path
         style="fill:none;stroke:#000000;stroke-width:0.196447;stroke-linecap:butt;stroke-linejoin:miter;stroke-miterlimit:4;stroke-dasharray:none;stroke-opacity:1"
         d="m 0.13384884,186.85895 129.99987116,-0.098 v 0"
         id="path5312"
         inkscape:connector-curvature="0" />
      <path
         id="path5314"
         d="m 0.14302003,196.85895 129.99986997,-0.098 v 0"
         style="fill:none;stroke:#000000;stroke-width:0.19644718;stroke-linecap:butt;stroke-linejoin:miter;stroke-miterlimit:4;stroke-dasharray:none;stroke-opacity:1"
         inkscape:connector-curvature="0" />
      <path
         style="fill:none;stroke:#000000;stroke-width:0.19644699;stroke-linecap:butt;stroke-linejoin:miter;stroke-miterlimit:4;stroke-dasharray:none;stroke-opacity:1"
         d="m 0.15219123,206.85895 129.99986877,-0.098 v 0"
         id="path5316"
         inkscape:connector-curvature="0" />
      <path
         id="path5318"
         d="m 0.16136243,216.85895 129.99986757,-0.098 v 0"
         style="fill:none;stroke:#000000;stroke-width:0.196447;stroke-linecap:butt;stroke-linejoin:miter;stroke-miterlimit:4;stroke-dasharray:none;stroke-opacity:1"
         inkscape:connector-curvature="0" />
      <path
         style="fill:none;stroke:#000000;stroke-width:0.19644757;stroke-linecap:butt;stroke-linejoin:miter;stroke-miterlimit:4;stroke-dasharray:none;stroke-opacity:1"
         d="m 0.1705336,226.85895 129.9998664,-0.098 v 0"
         id="path5320"
         inkscape:connector-curvature="0" />
      <path
         id="path5322"
         d="m 0.1797048,236.85895 129.9998652,-0.098 v 0"
         style="fill:none;stroke:#000000;stroke-width:0.19644757;stroke-linecap:butt;stroke-linejoin:miter;stroke-miterlimit:4;stroke-dasharray:none;stroke-opacity:1"
         inkscape:connector-curvature="0" />
      <path
         style="fill:none;stroke:#000000;stroke-width:0.19644718;stroke-linecap:butt;stroke-linejoin:miter;stroke-miterlimit:4;stroke-dasharray:none;stroke-opacity:1"
         d="m 0.188876,246.85895 129.999864,-0.098 v 0"
         id="path5324"
         inkscape:connector-curvature="0" />
      <path
         id="path5326"
         d="M 0.19804719,256.85895 130.19791,256.76102 v 0"
         style="fill:none;stroke:#000000;stroke-width:0.19644813;stroke-linecap:butt;stroke-linejoin:miter;stroke-miterlimit:4;stroke-dasharray:none;stroke-opacity:1"
         inkscape:connector-curvature="0" />
      <path
         style="fill:none;stroke:#000000;stroke-width:0.19644757;stroke-linecap:butt;stroke-linejoin:miter;stroke-miterlimit:4;stroke-dasharray:none;stroke-opacity:1"
         d="m 0.20721838,266.85895 129.99987162,-0.098 v 0"
         id="path5328"
         inkscape:connector-curvature="0" />
      <path
         id="path5330"
         d="m 0.21638958,276.85895 129.99987042,-0.098 v 0"
         style="fill:none;stroke:#000000;stroke-width:0.19644718;stroke-linecap:butt;stroke-linejoin:miter;stroke-miterlimit:4;stroke-dasharray:none;stroke-opacity:1"
         inkscape:connector-curvature="0" />
      <path
         id="path1034"
         d="m 0.13384884,176.85895 129.99987116,-0.098 v 0"
         style="fill:none;stroke:#000000;stroke-width:0.196447;stroke-linecap:butt;stroke-linejoin:miter;stroke-miterlimit:4;stroke-dasharray:none;stroke-opacity:1"
         inkscape:connector-curvature="0" />
      <path
         style="fill:none;stroke:#000000;stroke-width:0.19637555;stroke-linecap:butt;stroke-linejoin:miter;stroke-miterlimit:4;stroke-dasharray:none;stroke-opacity:1"
         d="M 0.13384858,166.85898 130.13372,166.76126 v 0"
         id="path1036"
         inkscape:connector-curvature="0" />
      <path
         id="path1180"
         d="M 0.13384855,156.85898 130.13371,156.76124 v 0"
         style="fill:none;stroke:#000000;stroke-width:0.19637536;stroke-linecap:butt;stroke-linejoin:miter;stroke-miterlimit:4;stroke-dasharray:none;stroke-opacity:1"
         inkscape:connector-curvature="0" />
      <path
         id="path4687"
         d="m 10.290291,157 v 130 0"
         style="fill:none;stroke:#000000;stroke-width:0.2;stroke-linecap:butt;stroke-linejoin:miter;stroke-miterlimit:4;stroke-dasharray:none;stroke-opacity:1"
         inkscape:connector-curvature="0" />
      <path
         style="fill:none;stroke:#000000;stroke-width:0.2;stroke-linecap:butt;stroke-linejoin:miter;stroke-miterlimit:4;stroke-dasharray:none;stroke-opacity:1"
         d="m 20.290291,157.00017 v 130 0"
         id="path4689"
         inkscape:connector-curvature="0" />
      <path
         id="path5234"
         d="m 120.29029,157 v 130 0"
         style="fill:none;stroke:#000000;stroke-width:0.2;stroke-linecap:butt;stroke-linejoin:miter;stroke-miterlimit:4;stroke-dasharray:none;stroke-opacity:1"
         inkscape:connector-curvature="0" />
      <path
         style="fill:none;stroke:#000000;stroke-width:0.2;stroke-linecap:butt;stroke-linejoin:miter;stroke-miterlimit:4;stroke-dasharray:none;stroke-opacity:1"
         d="m 110.29029,157 v 130 0"
         id="path5236"
         inkscape:connector-curvature="0" />
      <path
         id="path5238"
         d="m 100.29029,157 v 130 0"
         style="fill:none;stroke:#000000;stroke-width:0.2;stroke-linecap:butt;stroke-linejoin:miter;stroke-miterlimit:4;stroke-dasharray:none;stroke-opacity:1"
         inkscape:connector-curvature="0" />
      <path
         style="fill:none;stroke:#000000;stroke-width:0.2;stroke-linecap:butt;stroke-linejoin:miter;stroke-miterlimit:4;stroke-dasharray:none;stroke-opacity:1"
         d="m 90.290291,157 v 130 0"
         id="path5240"
         inkscape:connector-curvature="0" />
      <path
         id="path5242"
         d="m 80.290291,157 v 130 0"
         style="fill:none;stroke:#000000;stroke-width:0.2;stroke-linecap:butt;stroke-linejoin:miter;stroke-miterlimit:4;stroke-dasharray:none;stroke-opacity:1"
         inkscape:connector-curvature="0" />
      <path
         style="fill:none;stroke:#000000;stroke-width:0.2;stroke-linecap:butt;stroke-linejoin:miter;stroke-miterlimit:4;stroke-dasharray:none;stroke-opacity:1"
         d="m 70.290291,157 v 130 0"
         id="path5244"
         inkscape:connector-curvature="0" />
      <path
         id="path5246"
         d="m 60.290291,157.00017 v 130 0"
         style="fill:none;stroke:#000000;stroke-width:0.2;stroke-linecap:butt;stroke-linejoin:miter;stroke-miterlimit:4;stroke-dasharray:none;stroke-opacity:1"
         inkscape:connector-curvature="0" />
      <path
         style="fill:none;stroke:#000000;stroke-width:0.2;stroke-linecap:butt;stroke-linejoin:miter;stroke-miterlimit:4;stroke-dasharray:none;stroke-opacity:1"
         d="m 50.290291,157 v 130 0"
         id="path5248"
         inkscape:connector-curvature="0" />
      <path
         id="path5250"
         d="m 40.290291,157.00017 v 130 0"
         style="fill:none;stroke:#000000;stroke-width:0.2;stroke-linecap:butt;stroke-linejoin:miter;stroke-miterlimit:4;stroke-dasharray:none;stroke-opacity:1"
         inkscape:connector-curvature="0" />
      <path
         style="fill:none;stroke:#000000;stroke-width:0.2;stroke-linecap:butt;stroke-linejoin:miter;stroke-miterlimit:4;stroke-dasharray:none;stroke-opacity:1"
         d="m 30.290291,157 v 130 0"
         id="path5252"
         inkscape:connector-curvature="0" />
      <path
         style="fill:none;stroke:#000000;stroke-width:0.2;stroke-linecap:butt;stroke-linejoin:miter;stroke-miterlimit:4;stroke-dasharray:none;stroke-opacity:1"
         d="m 0.2902913,157 v 130 0"
         id="path1122"
         inkscape:connector-curvature="0" />
      <path
         style="fill:none;stroke:#000000;stroke-width:0.2;stroke-linecap:butt;stroke-linejoin:miter;stroke-miterlimit:4;stroke-dasharray:none;stroke-opacity:1"
         d="m 130.29029,157 v 130 0"
         id="path1195"
         inkscape:connector-curvature="0" />
    </g>
  </g>
  <g
     id="layer3"
     transform="translate(0,10)">
    <g
       id="g212"
       transform="matrix(0.89241506,0,0,0.89129273,4.7106155,4.6517188)"
       style="stroke-width:0.44251707;stroke-miterlimit:4;stroke-dasharray:none">
      <path
         id="path202"
         d="m 14.552083,11.677083 c 5.291667,0 5.291667,0 5.291667,0 v 0"
         style="fill:none;stroke:#000000;stroke-width:0.44251707;stroke-linecap:butt;stroke-linejoin:miter;stroke-miterlimit:4;stroke-dasharray:none;stroke-opacity:1"
         inkscape:connector-curvature="0" />
      <path
         id="path204"
         d="M 14.552083,9.0312498 C 19.84375,14.322916 19.84375,14.322916 19.84375,14.322916"
         style="fill:none;stroke:#000000;stroke-width:0.44251707;stroke-linecap:butt;stroke-linejoin:miter;stroke-miterlimit:4;stroke-dasharray:none;stroke-opacity:1"
         inkscape:connector-curvature="0" />
      <path
         id="path206"
         d="M 14.552083,14.322916 C 19.84375,9.0312498 19.84375,9.0312498 19.84375,9.0312498"
         style="fill:none;stroke:#000000;stroke-width:0.44251707;stroke-linecap:butt;stroke-linejoin:miter;stroke-miterlimit:4;stroke-dasharray:none;stroke-opacity:1"
         inkscape:connector-curvature="0" />
    </g>
    <g
       id="g4678">
      <g
         style="stroke-width:0.41162288;stroke-miterlimit:4;stroke-dasharray:none"
         transform="matrix(0.96745251,0,0,1.0006481,1.3411909,2.0114846)"
         id="g1046">
        <ellipse
           style="opacity:1;fill:none;stroke:#000000;stroke-width:0.41162288;stroke-miterlimit:4;stroke-dasharray:none;stroke-opacity:1"
           id="path227"
           cx="38.422543"
           cy="14.427568"
           rx="0.82535583"
           ry="1.0502177" />
        <ellipse
           cy="11.563192"
           cx="41.736641"
           id="circle1034"
           style="opacity:1;fill:none;stroke:#000000;stroke-width:0.41162288;stroke-miterlimit:4;stroke-dasharray:none;stroke-opacity:1"
           rx="0.82535583"
           ry="1.0502177" />
        <path
           style="fill:none;stroke:#000000;stroke-width:0.41162288;stroke-linecap:butt;stroke-linejoin:miter;stroke-miterlimit:4;stroke-dasharray:none;stroke-opacity:1"
           d="M 39.064496,13.754992 C 41.00759,12.108624 41.00759,12.108624 41.00759,12.108624"
           id="path1039"
           inkscape:connector-curvature="0" />
      </g>
    </g>
    <path
       d="m 17.749462,22.529297 h 4.807693 v 4.807692 h -4.807693 z"
       id=" "
       inkscape:connector-curvature="0" />
    <path
       style="fill:none;stroke:#000000;stroke-width:0.405;stroke-linecap:butt;stroke-linejoin:miter;stroke-miterlimit:4;stroke-dasharray:none;stroke-opacity:1"
       d="m 56.557231,16.933475 3.048521,-4.572783 3.048524,4.572783 z"
       id="path1054"
       inkscape:connector-curvature="0" />
    <path
       style="fill:none;stroke:#000000;stroke-width:0.39687499;stroke-linecap:butt;stroke-linejoin:miter;stroke-miterlimit:4;stroke-dasharray:none;stroke-opacity:1"
       d="m 27.636972,22.529295 h 4.807694 v 4.807696 h -4.807694 z"
       id="path916"
       inkscape:connector-curvature="0" />
    <path
       style="opacity:1;fill:none;fill-opacity:1;fill-rule:nonzero;stroke:#000000;stroke-width:6;stroke-linecap:butt;stroke-linejoin:miter;stroke-miterlimit:4;stroke-dasharray:none;stroke-opacity:1"
       d="M 4.0886593,3.8659954 H 45.911341 V 46.134005 H 4.0886593 Z"
       id="rect33060"
       inkscape:connector-curvature="0" />
    <path
       id="sextile"
       d="m 86.662398,83.572222 h -44 m 11,-19 22,37.999998 m 0,-37.999998 -22,37.999998"
       inkscape:connector-curvature="0"
       style="stroke:#000000;stroke-width:5.5" />
    <path
       id="trine"
       d="m 18.033536,98.79707 h 40 l -20,-40 z"
       inkscape:connector-curvature="0"
       style="fill:none;stroke:#000000;stroke-width:6" />
    <path
       id="conjuction"
       d="m 33.348165,78.021786 a 11,11 0 1 0 2,2 z m 1,1 22,-22"
       inkscape:connector-curvature="0"
       style="fill:none;stroke:#000000;stroke-width:6" />
    <path
       id="opposition"
       d="m 71.370083,35.617904 a 9,9 0 1 0 2,2 z m 1,1 12,-12 m 1,1 a 9,9 0 1 0 -2,-2 z"
       inkscape:connector-curvature="0"
       style="fill:none;stroke:#000000;stroke-width:6" />
  </g>
  <g
     id="Planetas"
     style="display:inline"
     transform="translate(9.77792,19.796509)">
    <g
       id="g4983"
       style="display:inline"
       transform="translate(4.8097087,0.04283)">
      <g
         id="g147"
         transform="translate(0,0.41541149)">
        <g
           id="sol"
           style="overflow:hidden"
           transform="matrix(0.2635816,0,0,0.26351558,-167.65718,-61.498523)">
          <path
             id="path4929"
             d="m 620,243 -2.18182,0.72727 -2.18182,1.45454 -1.45455,2.18182 -0.72727,2.18182 v 2.18182 l 0.72727,2.18182 1.45455,2.18182 2.18182,1.45454 2.18182,0.72728 h 2.18181 l 2.18182,-0.72728 2.18182,-1.45454 1.45455,-2.18182 0.72727,-2.18182 v -2.18182 L 628,247.36363 626.54545,245.18181 624.36363,243.72727 622.18181,243 H 620 m 0.72727,6.54545 L 620,250.27273 V 251 l 0.72727,0.72727 h 0.72727 L 622.18181,251 v -0.72727 l -0.72727,-0.72728 h -0.72727 m 0,0.72728 V 251 h 0.72727 v -0.72727 h -0.72727"
             style="fill:none;stroke:#000000;stroke-width:1.79999995" />
        </g>
        <g
           transform="matrix(0.26368228,0,0,0.26170442,-158.60829,-70.081399)"
           style="overflow:hidden"
           id="g67">
          <path
             style="fill:none;stroke:#000000;stroke-width:1.79999995"
             d="m 620,243 -2.18182,0.72727 -2.18182,1.45454 -1.45455,2.18182 -0.72727,2.18182 v 2.18182 l 0.72727,2.18182 1.45455,2.18182 2.18182,1.45454 2.18182,0.72728 h 2.18181 l 2.18182,-0.72728 2.18182,-1.45454 1.45455,-2.18182 0.72727,-2.18182 v -2.18182 L 628,247.36363 626.54545,245.18181 624.36363,243.72727 622.18181,243 H 620 m 0.72727,6.54545 L 620,250.27273 V 251 l 0.72727,0.72727 h 0.72727 L 622.18181,251 v -0.72727 l -0.72727,-0.72728 h -0.72727 m 0,0.72728 V 251 h 0.72727 v -0.72727 h -0.72727"
             id="path65" />
        </g>
        <g
           transform="matrix(0.26458333,0,0,0.26458333,-176.52612,-67.659994)"
           style="overflow:hidden"
           id="g73">
          <path
             style="fill:none;stroke:#000000;stroke-width:1.79999995"
             d="m 649,305 a 7.4969283,7.4969283 0 0 1 0,14.32746 A 7.4969283,7.4969283 0 1 0 649,305 Z"
             id="path71" />
        </g>
        <g
           transform="matrix(0.26458333,0,0,0.26458333,-174.02351,-52.578597)"
           style="overflow:hidden"
           id="g79">
          <path
             style="fill:none;stroke:#000000;stroke-width:1.79999995"
             d="m 642,300 h 4.26011 m -2.13005,-2.98207 v 5.11213 m 4.70312,-9.7983 a 4.70315,4.70315 0 0 1 -4.70315,4.70314 4.70315,4.70315 0 0 1 -4.70314,-4.70314 4.70315,4.70315 0 0 1 4.70314,-4.70315 4.70315,4.70315 0 0 1 4.70315,4.70315 z"
             id="path75" />
          <path
             style="fill:none;stroke:#000000;stroke-width:1.79999995"
             d="m 648,284 a 3.9717855,3.9717855 0 0 1 -3.95541,3.59054 3.9717855,3.9717855 0 0 1 -3.95185,-3.59445"
             id="path77" />
        </g>
        <g
           transform="matrix(0.26458333,0,0,0.26458333,-139.68763,-7.0267683)"
           style="overflow:hidden"
           id="g83">
          <path
             style="fill:none;stroke:#000000;stroke-width:1.79999995"
             d="m 516,166 -4.93767,0.0397 m 2.44897,2.36461 v -5.79014 c -3.10954,-0.008 -5.62461,-2.53422 -5.62018,-5.64208 0.004,-3.10771 2.52651,-5.62169 5.63558,-5.62169 3.10907,0 5.63115,2.51398 5.63558,5.62169 0.004,3.10786 -2.51064,5.63358 -5.62019,5.64208"
             id="path81" />
        </g>
        <g
           transform="matrix(0.26458333,0,0,0.26458333,-150.5435,-3.6524428)"
           style="overflow:hidden"
           id="g87">
          <path
             style="fill:none;stroke:#000000;stroke-width:1.79999995"
             d="m 557,181 c -5.24744,-4.15062 -11.6993,3.20552 -7.01881,7.88601 4.6805,4.68048 12.03663,-1.77138 7.886,-7.01882 z m 0,0 0.4336,0.43359 3.99656,-4.21741 m -3.2398,-0.0552 h 3.29502 l 0.11042,3.6815"
             id="path85" />
        </g>
        <g
           transform="matrix(0.26458333,0,0,0.26458333,-138.70029,-114.93515)"
           style="overflow:hidden"
           id="g91">
          <path
             style="fill:none;stroke:#000000;stroke-width:1.79999995"
             d="m 505,641 c -0.43473,0 -1.30422,-0.40572 -1.30422,-2.02857 0,-1.62285 1.73897,-3.2457 3.47792,-3.2457 1.73897,0 3.47792,1.21715 3.47792,4.05713 0,2.83999 -2.1737,7.30283 -6.52108,7.30283 m 12.17269,0 h -12.60745 m 9.99902,-11.76567 v 15.82279"
             id="path89" />
        </g>
        <g
           transform="matrix(0.26458333,0,0,0.26458333,-92.244888,-109.56577)"
           style="overflow:hidden"
           id="g95">
          <path
             style="fill:none;stroke:#000000;stroke-width:1.79999995"
             d="m 338,668 c -0.52222,0.52221 -1.04445,1.04444 -1.56666,1.04444 -0.52222,0 -1.56667,-0.52223 -1.56667,-1.56667 0,-1.04443 0.52223,-2.08887 1.56667,-3.13332 1.04444,-1.04443 2.08888,-3.13331 2.08888,-5.22219 0,-2.08888 -1.04444,-4.17776 -3.13332,-4.17776 -1.97566,0 -3.65555,1.04444 -4.69998,3.13333 m -2.55515,-5.87499 h 6.26664 m -3.71149,-2.48054 v 15.14438"
             id="path93" />
        </g>
        <g
           transform="matrix(0.26458333,0,0,0.26458333,-132.72997,-97.704427)"
           style="overflow:hidden"
           id="urano">
          <path
             style="fill:none;stroke:#000000;stroke-width:1.79999995"
             d="m 481,645 v 10.23824 m 10.23633,-10.32764 v 10.23824 m -10.26606,-4.6394 h 10.23085 m -5.06415,-5.51532 v 11.94985"
             id="path97" />
          <path
             style="fill:none;stroke:#000000;stroke-width:1.79999995"
             d="m 488,659.5 a 1.8384377,1.8384377 0 0 1 -1.83844,1.83843 1.8384377,1.8384377 0 0 1 -1.83842,-1.83843 1.8384377,1.8384377 0 0 1 1.83842,-1.83844 A 1.8384377,1.8384377 0 0 1 488,659.5 Z"
             id="path99" />
        </g>
        <g
           transform="matrix(0.26458333,0,0,0.26458333,-154.11321,-75.832595)"
           style="overflow:hidden"
           id="g105">
          <path
             style="fill:none;stroke:#000000;stroke-width:1.79999995"
             d="m 570,602 1.77059,-2.36312 2.31872,1.8045 m -14.44264,-0.20006 2.34113,-1.77418 1.74085,2.38595 m -1.80013,-1.77265 c -1.23776,8.40975 0.82518,9.67121 4.95106,9.67121 4.12589,0 6.18883,-1.26146 4.95107,-9.67121 m -7.05334,3.17005 2.03997,-2.12559 2.08565,2.07903 m -5.32406,9.91162 h 6.60142 m -3.30071,-12.19414 v 15.55803"
             id="path103" />
        </g>
        <g
           transform="matrix(0.26458333,0,0,0.26458333,-86.596824,-77.098563)"
           style="overflow:hidden"
           id="g111">
          <path
             style="fill:none;stroke:#000000;stroke-width:1.79999995"
             d="m 317,647 a 5.7676856,5.7676856 0 0 1 -2.88385,4.99496 5.7676856,5.7676856 0 0 1 -5.76768,0 A 5.7676856,5.7676856 0 0 1 305.46462,647 m 5.76771,13.93858 v -8.17088 m -3.84512,4.32576 h 7.69024"
             id="path107" />
          <path
             style="fill:none;stroke:#000000;stroke-width:1.79999995"
             d="m 314.7,647 a 3.3644834,3.3644834 0 0 1 -3.36448,3.36449 A 3.3644834,3.3644834 0 0 1 307.97104,647 3.3644834,3.3644834 0 0 1 311.33552,643.63552 3.3644834,3.3644834 0 0 1 314.7,647 Z"
             id="path109" />
        </g>
        <g
           transform="matrix(0.26458333,0,0,0.26458333,-63.426885,51.899402)"
           style="overflow:hidden"
           id="g115">
          <path
             style="fill:none;stroke:#000000;stroke-width:1.79999995"
             d="m 221,204 -1.33333,-0.66667 H 219 L 217.66667,204 217,205.33333 V 206 l 0.66667,1.33333 L 219,208 h 0.66667 L 221,207.33333 221.66667,206 v -0.66667 L 221,204 l -2,-2.66667 -0.66667,-2 V 198 L 219,196 l 1.33333,-1.33333 2,-0.66667 H 225 l 2,0.66667 L 228.33333,196 229,198 v 1.33333 l -0.66667,2 -2,2.66667 -0.66666,1.33333 V 206 l 0.66666,1.33333 1.33334,0.66667 h 0.66666 l 1.33334,-0.66667 L 230.33333,206 v -0.66667 L 229.66667,204 l -1.33334,-0.66667 h -0.66666 L 226.33333,204 m -8,-6 0.66667,-1.33333 1.33333,-1.33334 2,-0.66666 H 225 l 2,0.66666 1.33333,1.33334 L 229,198"
             id="path113" />
        </g>
        <g
           transform="matrix(0.26458333,0,0,0.26458333,-157.51176,-43.123859)"
           style="overflow:hidden"
           id="g119">
          <path
             style="fill:none;stroke:#000000;stroke-width:1.79999995"
             transform="rotate(180,582,595)"
             d="m 582,595 -1.33333,-0.66667 H 580 L 578.66667,595 578,596.33333 V 597 l 0.66667,1.33333 L 580,599 h 0.66667 L 582,598.33333 582.66667,597 v -0.66667 L 582,595 l -2,-2.66667 -0.66667,-2 V 589 L 580,587 l 1.33333,-1.33333 2,-0.66667 H 586 l 2,0.66667 L 589.33333,587 590,589 v 1.33333 l -0.66667,2 -2,2.66667 -0.66666,1.33333 V 597 l 0.66666,1.33333 1.33334,0.66667 h 0.66666 l 1.33334,-0.66667 L 591.33333,597 v -0.66667 L 590.66667,595 l -1.33334,-0.66667 h -0.66666 L 587.33333,595 m -8,-6 0.66667,-1.33333 1.33333,-1.33334 2,-0.66666 H 586 l 2,0.66666 1.33333,1.33334 L 590,589"
             id="path117" />
        </g>
        <g
           id="g3821"
           style="overflow:hidden"
           transform="matrix(0.26458333,0,0,0.26458333,-157.19804,-87.853759)">
          <path
             id="path3819"
             d="m 649,305 a 7.4969283,7.4969283 0 0 1 0,14.32746 A 7.4969283,7.4969283 0 1 0 649,305 Z"
             style="fill:none;stroke:#000000;stroke-width:1.79999995" />
        </g>
        <g
           id="g3827"
           style="overflow:hidden"
           transform="matrix(0.26458333,0,0,0.26458333,-145.1119,-82.297509)">
          <path
             id="path3823"
             d="m 642,300 h 4.26011 m -2.13005,-2.98207 v 5.11213 m 4.70312,-9.7983 a 4.70315,4.70315 0 0 1 -4.70315,4.70314 4.70315,4.70315 0 0 1 -4.70314,-4.70314 4.70315,4.70315 0 0 1 4.70314,-4.70315 4.70315,4.70315 0 0 1 4.70315,4.70315 z"
             style="fill:none;stroke:#000000;stroke-width:1.79999995" />
          <path
             id="path3825"
             d="m 648,284 a 3.9717855,3.9717855 0 0 1 -3.95541,3.59054 3.9717855,3.9717855 0 0 1 -3.95185,-3.59445"
             style="fill:none;stroke:#000000;stroke-width:1.79999995" />
        </g>
        <g
           id="g3831"
           style="overflow:hidden"
           transform="matrix(0.26458333,0,0,0.26458333,-100.18333,-46.827461)">
          <path
             id="path3829"
             d="m 516,166 -4.93767,0.0397 m 2.44897,2.36461 v -5.79014 c -3.10954,-0.008 -5.62461,-2.53422 -5.62018,-5.64208 0.004,-3.10771 2.52651,-5.62169 5.63558,-5.62169 3.10907,0 5.63115,2.51398 5.63558,5.62169 0.004,3.10786 -2.51064,5.63358 -5.62019,5.64208"
             style="fill:none;stroke:#000000;stroke-width:1.79999995" />
        </g>
        <g
           id="g3835"
           style="overflow:hidden"
           transform="matrix(0.26458333,0,0,0.26458333,-101.10638,-53.822161)">
          <path
             id="path3833"
             d="m 557,181 c -5.24744,-4.15062 -11.6993,3.20552 -7.01881,7.88601 4.6805,4.68048 12.03663,-1.77138 7.886,-7.01882 z m 0,0 0.4336,0.43359 3.99656,-4.21741 m -3.2398,-0.0552 h 3.29502 l 0.11042,3.6815"
             style="fill:none;stroke:#000000;stroke-width:1.79999995" />
        </g>
        <g
           id="g3839"
           style="overflow:hidden"
           transform="matrix(0.26458333,0,0,0.26458333,-79.065209,-175.25093)">
          <path
             id="path3837"
             d="m 505,641 c -0.43473,0 -1.30422,-0.40572 -1.30422,-2.02857 0,-1.62285 1.73897,-3.2457 3.47792,-3.2457 1.73897,0 3.47792,1.21715 3.47792,4.05713 0,2.83999 -2.1737,7.30283 -6.52108,7.30283 m 12.17269,0 h -12.60745 m 9.99902,-11.76567 v 15.82279"
             style="fill:none;stroke:#000000;stroke-width:1.79999995" />
        </g>
        <g
           id="g3843"
           style="overflow:hidden"
           transform="matrix(0.26458333,0,0,0.26458333,-23.061178,-179.51088)">
          <path
             id="path3841"
             d="m 338,668 c -0.52222,0.52221 -1.04445,1.04444 -1.56666,1.04444 -0.52222,0 -1.56667,-0.52223 -1.56667,-1.56667 0,-1.04443 0.52223,-2.08887 1.56667,-3.13332 1.04444,-1.04443 2.08888,-3.13331 2.08888,-5.22219 0,-2.08888 -1.04444,-4.17776 -3.13332,-4.17776 -1.97566,0 -3.65555,1.04444 -4.69998,3.13333 m -2.55515,-5.87499 h 6.26664 m -3.71149,-2.48054 v 15.14438"
             style="fill:none;stroke:#000000;stroke-width:1.79999995" />
        </g>
        <g
           id="g3849"
           style="overflow:hidden"
           transform="matrix(0.26458333,0,0,0.26458333,-53.253034,-177.81053)">
          <path
             id="path3845"
             d="m 481,645 v 10.23824 m 10.23633,-10.32764 v 10.23824 m -10.26606,-4.6394 h 10.23085 m -5.06415,-5.51532 v 11.94985"
             style="fill:none;stroke:#000000;stroke-width:1.79999995" />
          <path
             id="path3847"
             d="m 488,659.5 a 1.8384377,1.8384377 0 0 1 -1.83844,1.83843 1.8384377,1.8384377 0 0 1 -1.83842,-1.83843 1.8384377,1.8384377 0 0 1 1.83842,-1.83844 A 1.8384377,1.8384377 0 0 1 488,659.5 Z"
             style="fill:none;stroke:#000000;stroke-width:1.79999995" />
        </g>
        <g
           id="g3853"
           style="overflow:hidden"
           transform="matrix(0.26458333,0,0,0.26458333,-64.568194,-165.69221)">
          <path
             id="path3851"
             d="m 570,602 1.77059,-2.36312 2.31872,1.8045 m -14.44264,-0.20006 2.34113,-1.77418 1.74085,2.38595 m -1.80013,-1.77265 c -1.23776,8.40975 0.82518,9.67121 4.95106,9.67121 4.12589,0 6.18883,-1.26146 4.95107,-9.67121 m -7.05334,3.17005 2.03997,-2.12559 2.08565,2.07903 m -5.32406,9.91162 h 6.60142 m -3.30071,-12.19414 v 15.55803"
             style="fill:none;stroke:#000000;stroke-width:1.79999995" />
        </g>
        <g
           id="g3859"
           style="overflow:hidden"
           transform="matrix(0.26458333,0,0,0.26458333,13.09611,-177.27992)">
          <path
             id="path3855"
             d="m 317,647 a 5.7676856,5.7676856 0 0 1 -2.88385,4.99496 5.7676856,5.7676856 0 0 1 -5.76768,0 A 5.7676856,5.7676856 0 0 1 305.46462,647 m 5.76771,13.93858 v -8.17088 m -3.84512,4.32576 h 7.69024"
             style="fill:none;stroke:#000000;stroke-width:1.79999995" />
          <path
             id="path3857"
             d="m 314.7,647 a 3.3644834,3.3644834 0 0 1 -3.36448,3.36449 A 3.3644834,3.3644834 0 0 1 307.97104,647 3.3644834,3.3644834 0 0 1 311.33552,643.63552 3.3644834,3.3644834 0 0 1 314.7,647 Z"
             style="fill:none;stroke:#000000;stroke-width:1.79999995" />
        </g>
        <g
           id="g3863"
           style="overflow:hidden"
           transform="matrix(0.26458333,0,0,0.26458333,46.176851,-58.133227)">
          <path
             id="path3861"
             d="m 221,204 -1.33333,-0.66667 H 219 L 217.66667,204 217,205.33333 V 206 l 0.66667,1.33333 L 219,208 h 0.66667 L 221,207.33333 221.66667,206 v -0.66667 L 221,204 l -2,-2.66667 -0.66667,-2 V 198 L 219,196 l 1.33333,-1.33333 2,-0.66667 H 225 l 2,0.66667 L 228.33333,196 229,198 v 1.33333 l -0.66667,2 -2,2.66667 -0.66666,1.33333 V 206 l 0.66666,1.33333 1.33334,0.66667 h 0.66666 l 1.33334,-0.66667 L 230.33333,206 v -0.66667 L 229.66667,204 l -1.33334,-0.66667 h -0.66666 L 226.33333,204 m -8,-6 0.66667,-1.33333 1.33333,-1.33334 2,-0.66666 H 225 l 2,0.66666 1.33333,1.33334 L 229,198"
             style="fill:none;stroke:#000000;stroke-width:1.79999995" />
        </g>
        <g
           id="g3867"
           style="overflow:hidden"
           transform="matrix(0.26458333,0,0,0.26458333,-37.871957,-163.5291)">
          <path
             id="path3865"
             d="m 582,595 -1.33333,-0.66667 H 580 L 578.66667,595 578,596.33333 V 597 l 0.66667,1.33333 L 580,599 h 0.66667 L 582,598.33333 582.66667,597 v -0.66667 L 582,595 l -2,-2.66667 -0.66667,-2 V 589 L 580,587 l 1.33333,-1.33333 2,-0.66667 H 586 l 2,0.66667 L 589.33333,587 590,589 v 1.33333 l -0.66667,2 -2,2.66667 -0.66666,1.33333 V 597 l 0.66666,1.33333 1.33334,0.66667 h 0.66666 l 1.33334,-0.66667 L 591.33333,597 v -0.66667 L 590.66667,595 l -1.33334,-0.66667 h -0.66666 L 587.33333,595 m -8,-6 0.66667,-1.33333 1.33333,-1.33334 2,-0.66666 H 586 l 2,0.66666 1.33333,1.33334 L 590,589"
             transform="rotate(180,582,595)"
             style="fill:none;stroke:#000000;stroke-width:1.79999995" />
        </g>
      </g>
    </g>
  </g>
</svg>
