<?xml version="1.0" encoding="UTF-8" standalone="no"?>
<!-- Created with Inkscape (http://www.inkscape.org/) -->

<svg
   xmlns:dc="http://purl.org/dc/elements/1.1/"
   xmlns:cc="http://creativecommons.org/ns#"
   xmlns:rdf="http://www.w3.org/1999/02/22-rdf-syntax-ns#"
   xmlns:svg="http://www.w3.org/2000/svg"
   xmlns="http://www.w3.org/2000/svg"
   xmlns:sodipodi="http://sodipodi.sourceforge.net/DTD/sodipodi-0.dtd"
   xmlns:inkscape="http://www.inkscape.org/namespaces/inkscape"
   width="140mm"
   height="140mm"
   viewBox="0 0 140 140"
   version="1.1"
   id="svg4685"
   inkscape:version="0.92.4 (5da689c313, 2019-01-14)"
   sodipodi:docname="rejilla.svg">
  <defs
     id="defs4679" />
  <sodipodi:namedview
     id="base"
     pagecolor="#ffffff"
     bordercolor="#666666"
     borderopacity="1.0"
     inkscape:pageopacity="0.0"
     inkscape:pageshadow="2"
     inkscape:zoom="1.979899"
     inkscape:cx="237.93817"
     inkscape:cy="313.98245"
     inkscape:document-units="mm"
     inkscape:current-layer="layer1"
     showgrid="true"
     inkscape:window-width="1920"
     inkscape:window-height="1017"
     inkscape:window-x="-8"
     inkscape:window-y="-8"
     inkscape:window-maximized="1">
    <inkscape:grid
       type="xygrid"
       id="grid69" />
  </sodipodi:namedview>
  <metadata
     id="metadata4682">
    <rdf:RDF>
      <cc:Work
         rdf:about="">
        <dc:format>image/svg+xml</dc:format>
        <dc:type
           rdf:resource="http://purl.org/dc/dcmitype/StillImage" />
        <dc:title></dc:title>
      </cc:Work>
    </rdf:RDF>
  </metadata>
  <g
     inkscape:label="Grid"
     inkscape:groupmode="layer"
     id="layer1"
     transform="translate(0,-157)"
     style="display:inline">
    <g
       id="g177"
       style="display:inline;stroke-width:0.2;stroke-miterlimit:4;stroke-dasharray:none">
      <path
         inkscape:connector-curvature="0"
         id="path5310"
         d="M 0.22556197,287.01068 140.04029,286.91626 v 0"
         style="fill:none;stroke:#000000;stroke-width:0.2;stroke-linecap:butt;stroke-linejoin:miter;stroke-miterlimit:4;stroke-dasharray:none;stroke-opacity:1" />
      <path
         style="fill:none;stroke:#000000;stroke-width:0.2;stroke-linecap:butt;stroke-linejoin:miter;stroke-miterlimit:4;stroke-dasharray:none;stroke-opacity:1"
         d="M 0.13385004,186.79526 139.94856,186.70083 v 0"
         id="path5312"
         inkscape:connector-curvature="0" />
      <path
         inkscape:connector-curvature="0"
         id="path5314"
         d="M 0.14302123,196.8168 139.95775,196.72238 v 0"
         style="fill:none;stroke:#000000;stroke-width:0.2;stroke-linecap:butt;stroke-linejoin:miter;stroke-miterlimit:4;stroke-dasharray:none;stroke-opacity:1" />
      <path
         style="fill:none;stroke:#000000;stroke-width:0.2;stroke-linecap:butt;stroke-linejoin:miter;stroke-miterlimit:4;stroke-dasharray:none;stroke-opacity:1"
         d="M 0.15219243,206.83834 139.96693,206.74391 v 0"
         id="path5316"
         inkscape:connector-curvature="0" />
      <path
         inkscape:connector-curvature="0"
         id="path5318"
         d="M 0.16136363,216.85988 139.97609,216.76545 v 0"
         style="fill:none;stroke:#000000;stroke-width:0.2;stroke-linecap:butt;stroke-linejoin:miter;stroke-miterlimit:4;stroke-dasharray:none;stroke-opacity:1" />
      <path
         style="fill:none;stroke:#000000;stroke-width:0.2;stroke-linecap:butt;stroke-linejoin:miter;stroke-miterlimit:4;stroke-dasharray:none;stroke-opacity:1"
         d="M 0.1705348,226.88143 139.98526,226.787 v 0"
         id="path5320"
         inkscape:connector-curvature="0" />
      <path
         inkscape:connector-curvature="0"
         id="path5322"
         d="m 0.179706,236.90296 139.814724,-0.0944 v 0"
         style="fill:none;stroke:#000000;stroke-width:0.2;stroke-linecap:butt;stroke-linejoin:miter;stroke-miterlimit:4;stroke-dasharray:none;stroke-opacity:1" />
      <path
         style="fill:none;stroke:#000000;stroke-width:0.2;stroke-linecap:butt;stroke-linejoin:miter;stroke-miterlimit:4;stroke-dasharray:none;stroke-opacity:1"
         d="M 0.1888772,246.92451 140.0036,246.83009 v 0"
         id="path5324"
         inkscape:connector-curvature="0" />
      <path
         inkscape:connector-curvature="0"
         id="path5326"
         d="M 0.19804839,256.94602 140.01277,256.85165 v 0"
         style="fill:none;stroke:#000000;stroke-width:0.2;stroke-linecap:butt;stroke-linejoin:miter;stroke-miterlimit:4;stroke-dasharray:none;stroke-opacity:1" />
      <path
         style="fill:none;stroke:#000000;stroke-width:0.2;stroke-linecap:butt;stroke-linejoin:miter;stroke-miterlimit:4;stroke-dasharray:none;stroke-opacity:1"
         d="M 0.20721958,266.96759 140.02194,266.87319 v 0"
         id="path5328"
         inkscape:connector-curvature="0" />
      <path
         inkscape:connector-curvature="0"
         id="path5330"
         d="M 0.21639078,276.98913 140.03112,276.89471 v 0"
         style="fill:none;stroke:#000000;stroke-width:0.2;stroke-linecap:butt;stroke-linejoin:miter;stroke-miterlimit:4;stroke-dasharray:none;stroke-opacity:1" />
      <path
         inkscape:connector-curvature="0"
         id="path1034"
         d="M 0.13385004,176.77371 139.94856,176.67928 v 0"
         style="fill:none;stroke:#000000;stroke-width:0.2;stroke-linecap:butt;stroke-linejoin:miter;stroke-miterlimit:4;stroke-dasharray:none;stroke-opacity:1" />
      <path
         style="fill:none;stroke:#000000;stroke-width:0.2;stroke-linecap:butt;stroke-linejoin:miter;stroke-miterlimit:4;stroke-dasharray:none;stroke-opacity:1"
         d="M 0.1338498,166.75202 140.17049,166.6579 v 0"
         id="path1036"
         inkscape:connector-curvature="0" />
      <path
         inkscape:connector-curvature="0"
         id="path1180"
         d="m 0.1338498,156.99776 140.0366402,-0.0941 v 0"
         style="fill:none;stroke:#000000;stroke-width:0.2;stroke-linecap:butt;stroke-linejoin:miter;stroke-miterlimit:4;stroke-dasharray:none;stroke-opacity:1" />
      <path
         inkscape:connector-curvature="0"
         id="path4687"
         d="m 11.049668,157 v 130 0"
         style="fill:none;stroke:#000000;stroke-width:0.2;stroke-linecap:butt;stroke-linejoin:miter;stroke-miterlimit:4;stroke-dasharray:none;stroke-opacity:1" />
      <path
         style="fill:none;stroke:#000000;stroke-width:0.2;stroke-linecap:butt;stroke-linejoin:miter;stroke-miterlimit:4;stroke-dasharray:none;stroke-opacity:1"
         d="m 21.818898,157 v 130 0"
         id="path4689"
         inkscape:connector-curvature="0" />
      <path
         inkscape:connector-curvature="0"
         id="path5234"
         d="m 129.5112,157 v 130 0"
         style="fill:none;stroke:#000000;stroke-width:0.2;stroke-linecap:butt;stroke-linejoin:miter;stroke-miterlimit:4;stroke-dasharray:none;stroke-opacity:1" />
      <path
         style="fill:none;stroke:#000000;stroke-width:0.2;stroke-linecap:butt;stroke-linejoin:miter;stroke-miterlimit:4;stroke-dasharray:none;stroke-opacity:1"
         d="m 118.74197,157 v 130 0"
         id="path5236"
         inkscape:connector-curvature="0" />
      <path
         inkscape:connector-curvature="0"
         id="path5238"
         d="m 107.97274,157 v 130 0"
         style="fill:none;stroke:#000000;stroke-width:0.2;stroke-linecap:butt;stroke-linejoin:miter;stroke-miterlimit:4;stroke-dasharray:none;stroke-opacity:1" />
      <path
         style="fill:none;stroke:#000000;stroke-width:0.2;stroke-linecap:butt;stroke-linejoin:miter;stroke-miterlimit:4;stroke-dasharray:none;stroke-opacity:1"
         d="m 97.203509,157 v 130 0"
         id="path5240"
         inkscape:connector-curvature="0" />
      <path
         inkscape:connector-curvature="0"
         id="path5242"
         d="m 86.434271,157 v 130 0"
         style="fill:none;stroke:#000000;stroke-width:0.2;stroke-linecap:butt;stroke-linejoin:miter;stroke-miterlimit:4;stroke-dasharray:none;stroke-opacity:1" />
      <path
         style="fill:none;stroke:#000000;stroke-width:0.2;stroke-linecap:butt;stroke-linejoin:miter;stroke-miterlimit:4;stroke-dasharray:none;stroke-opacity:1"
         d="m 75.66504,157 v 130 0"
         id="path5244"
         inkscape:connector-curvature="0" />
      <path
         inkscape:connector-curvature="0"
         id="path5246"
         d="m 64.895819,157 v 130 0"
         style="fill:none;stroke:#000000;stroke-width:0.2;stroke-linecap:butt;stroke-linejoin:miter;stroke-miterlimit:4;stroke-dasharray:none;stroke-opacity:1" />
      <path
         style="fill:none;stroke:#000000;stroke-width:0.2;stroke-linecap:butt;stroke-linejoin:miter;stroke-miterlimit:4;stroke-dasharray:none;stroke-opacity:1"
         d="m 54.126589,157 v 130 0"
         id="path5248"
         inkscape:connector-curvature="0" />
      <path
         inkscape:connector-curvature="0"
         id="path5250"
         d="m 43.357358,157 v 130 0"
         style="fill:none;stroke:#000000;stroke-width:0.2;stroke-linecap:butt;stroke-linejoin:miter;stroke-miterlimit:4;stroke-dasharray:none;stroke-opacity:1" />
      <path
         style="fill:none;stroke:#000000;stroke-width:0.2;stroke-linecap:butt;stroke-linejoin:miter;stroke-miterlimit:4;stroke-dasharray:none;stroke-opacity:1"
         d="m 32.588128,157 v 130 0"
         id="path5252"
         inkscape:connector-curvature="0" />
      <path
         style="fill:none;stroke:#000000;stroke-width:0.2;stroke-linecap:butt;stroke-linejoin:miter;stroke-miterlimit:4;stroke-dasharray:none;stroke-opacity:1"
         d="m 0.28043707,157 v 130 0"
         id="path1122"
         inkscape:connector-curvature="0" />
      <path
         style="fill:none;stroke:#000000;stroke-width:0.2;stroke-linecap:butt;stroke-linejoin:miter;stroke-miterlimit:4;stroke-dasharray:none;stroke-opacity:1"
         d="m 140.1468,157 v 130 0"
         id="path1195"
         inkscape:connector-curvature="0" />
    </g>
  </g>
  <g
     inkscape:groupmode="layer"
     id="layer3"
     inkscape:label="Ascendentes">
    <g
       id="g212"
       transform="matrix(0.91037388,0,0,0.92008975,0.66259662,3.5121349)"
       inkscape:label="SEXTIL">
      <rect
         y="9.03125"
         x="14.552083"
         height="5"
         width="5"
         id="rect198"
         style="fill:none;stroke-width:0.5;stroke-miterlimit:4;stroke-dasharray:none" />
      <path
         inkscape:connector-curvature="0"
         id="path202"
         d="m 14.552083,11.677083 c 5.291667,0 5.291667,0 5.291667,0 v 0"
         style="fill:none;stroke:#000000;stroke-width:0.26458332px;stroke-linecap:butt;stroke-linejoin:miter;stroke-opacity:1" />
      <path
         inkscape:connector-curvature="0"
         id="path204"
         d="M 14.552083,9.0312498 C 19.84375,14.322916 19.84375,14.322916 19.84375,14.322916"
         style="fill:none;stroke:#000000;stroke-width:0.26458332px;stroke-linecap:butt;stroke-linejoin:miter;stroke-opacity:1" />
      <path
         inkscape:connector-curvature="0"
         id="path206"
         d="M 14.552083,14.322916 C 19.84375,9.0312498 19.84375,9.0312498 19.84375,9.0312498"
         style="fill:none;stroke:#000000;stroke-width:0.26458332px;stroke-linecap:butt;stroke-linejoin:miter;stroke-opacity:1" />
    </g>
    <g
       id="g1046"
       transform="matrix(0.96745251,0,0,1.0006481,-0.46144228,1.2611074)"
       inkscape:label="OPOSICION">
      <ellipse
         ry="1.0502177"
         rx="0.82535583"
         cy="14.427568"
         cx="38.422543"
         id="path227"
         style="opacity:1;fill:none;stroke:#000000;stroke-width:0.2;stroke-miterlimit:4;stroke-dasharray:none;stroke-opacity:1" />
      <ellipse
         ry="1.0502177"
         rx="0.82535583"
         style="opacity:1;fill:none;stroke:#000000;stroke-width:0.2;stroke-miterlimit:4;stroke-dasharray:none;stroke-opacity:1"
         id="circle1034"
         cx="41.736641"
         cy="11.563192" />
      <path
         inkscape:connector-curvature="0"
         id="path1039"
         d="M 39.064496,13.754992 C 41.00759,12.108624 41.00759,12.108624 41.00759,12.108624"
         style="fill:none;stroke:#000000;stroke-width:0.2;stroke-linecap:butt;stroke-linejoin:miter;stroke-miterlimit:4;stroke-dasharray:none;stroke-opacity:1" />
    </g>
    <rect
       style="opacity:1;fill:none;stroke:#000000;stroke-width:0.1923077;stroke-miterlimit:4;stroke-dasharray:none;stroke-opacity:1"
       id="rect1041"
       width="4.8076925"
       height="4.8076925"
       x="25.399267"
       y="11.873239"
       inkscape:label="CUADRATURA" />
    <path
       style="fill:none;stroke:#000000;stroke-width:0.30485222px;stroke-linecap:butt;stroke-linejoin:miter;stroke-opacity:1"
       d="m 45.976242,16.761587 3.048521,-4.572783 3.048524,4.572783 z"
       id="path1054"
       inkscape:connector-curvature="0"
       inkscape:label="TRIGONO" />
  </g>
  <g
     inkscape:groupmode="layer"
     id="layer2"
     inkscape:label="Planetas"
     style="display:inline"
     transform="translate(9.77792,9.7965092)">
    <g
       id="g4983"
       style="display:inline">
      <g
         id="g147"
         transform="translate(0,0.41541149)">
        <g
           id="g4931"
           style="overflow:hidden"
           transform="matrix(0.26458333,0,0,0.26458333,-168.27077,-61.775225)">
          <path
             id="path4929"
             d="m 620,243 -2.18182,0.72727 -2.18182,1.45454 -1.45455,2.18182 -0.72727,2.18182 v 2.18182 l 0.72727,2.18182 1.45455,2.18182 2.18182,1.45454 2.18182,0.72728 h 2.18181 l 2.18182,-0.72728 2.18182,-1.45454 1.45455,-2.18182 0.72727,-2.18182 v -2.18182 L 628,247.36363 626.54545,245.18181 624.36363,243.72727 622.18181,243 H 620 m 0.72727,6.54545 L 620,250.27273 V 251 l 0.72727,0.72727 h 0.72727 L 622.18181,251 v -0.72727 l -0.72727,-0.72728 h -0.72727 m 0,0.72728 V 251 h 0.72727 v -0.72727 h -0.72727"
             inkscape:connector-curvature="0"
             style="fill:none;stroke:#000000;stroke-width:1.79999995" />
        </g>
        <g
           id="g4935"
           style="overflow:hidden"
           transform="matrix(0.26458333,0,0,0.26458333,-155.35944,-87.881722)">
          <path
             id="path4933"
             d="m 649,305 a 7.4969283,7.4969283 0 0 1 0,14.32746 A 7.4969283,7.4969283 0 1 0 649,305 Z"
             inkscape:connector-curvature="0"
             style="fill:none;stroke:#000000;stroke-width:1.79999995" />
        </g>
        <g
           id="g4941"
           style="overflow:hidden"
           transform="matrix(0.26458333,0,0,0.26458333,-142.27349,-82.816695)">
          <path
             id="path4937"
             d="m 642,300 h 4.26011 m -2.13005,-2.98207 v 5.11213 m 4.70312,-9.7983 a 4.70315,4.70315 0 0 1 -4.70315,4.70314 4.70315,4.70315 0 0 1 -4.70314,-4.70314 4.70315,4.70315 0 0 1 4.70314,-4.70315 4.70315,4.70315 0 0 1 4.70315,4.70315 z"
             inkscape:connector-curvature="0"
             style="fill:none;stroke:#000000;stroke-width:1.79999995" />
          <path
             id="path4939"
             d="m 648,284 a 3.9717855,3.9717855 0 0 1 -3.95541,3.59054 3.9717855,3.9717855 0 0 1 -3.95185,-3.59445"
             inkscape:connector-curvature="0"
             style="fill:none;stroke:#000000;stroke-width:1.79999995" />
        </g>
        <g
           id="g4945"
           style="overflow:hidden"
           transform="matrix(0.26458333,0,0,0.26458333,-96.598317,-47.470223)">
          <path
             id="path4943"
             d="m 516,166 -4.93767,0.0397 m 2.44897,2.36461 v -5.79014 c -3.10954,-0.008 -5.62461,-2.53422 -5.62018,-5.64208 0.004,-3.10771 2.52651,-5.62169 5.63558,-5.62169 3.10907,0 5.63115,2.51398 5.63558,5.62169 0.004,3.10786 -2.51064,5.63358 -5.62019,5.64208"
             inkscape:connector-curvature="0"
             style="fill:none;stroke:#000000;stroke-width:1.79999995" />
        </g>
        <g
           id="g4949"
           style="overflow:hidden"
           transform="matrix(0.26458333,0,0,0.26458333,-97.248826,-54.301255)">
          <path
             id="path4947"
             d="m 557,181 c -5.24744,-4.15062 -11.6993,3.20552 -7.01881,7.88601 4.6805,4.68048 12.03663,-1.77138 7.886,-7.01882 z m 0,0 0.4336,0.43359 3.99656,-4.21741 m -3.2398,-0.0552 h 3.29502 l 0.11042,3.6815"
             inkscape:connector-curvature="0"
             style="fill:none;stroke:#000000;stroke-width:1.79999995" />
        </g>
        <g
           id="g4953"
           style="overflow:hidden"
           transform="matrix(0.26458333,0,0,0.26458333,-74.444302,-175.60039)">
          <path
             id="path4951"
             d="m 505,641 c -0.43473,0 -1.30422,-0.40572 -1.30422,-2.02857 0,-1.62285 1.73897,-3.2457 3.47792,-3.2457 1.73897,0 3.47792,1.21715 3.47792,4.05713 0,2.83999 -2.1737,7.30283 -6.52108,7.30283 m 12.17269,0 h -12.60745 m 9.99902,-11.76567 v 15.82279"
             inkscape:connector-curvature="0"
             style="fill:none;stroke:#000000;stroke-width:1.79999995" />
        </g>
        <g
           id="g4957"
           style="overflow:hidden"
           transform="matrix(0.26458333,0,0,0.26458333,-16.649646,-179.8694)">
          <path
             id="path4955"
             d="m 338,668 c -0.52222,0.52221 -1.04445,1.04444 -1.56666,1.04444 -0.52222,0 -1.56667,-0.52223 -1.56667,-1.56667 0,-1.04443 0.52223,-2.08887 1.56667,-3.13332 1.04444,-1.04443 2.08888,-3.13331 2.08888,-5.22219 0,-2.08888 -1.04444,-4.17776 -3.13332,-4.17776 -1.97566,0 -3.65555,1.04444 -4.69998,3.13333 m -2.55515,-5.87499 h 6.26664 m -3.71149,-2.48054 v 15.14438"
             inkscape:connector-curvature="0"
             style="fill:none;stroke:#000000;stroke-width:1.79999995" />
        </g>
        <g
           id="g4963"
           style="overflow:hidden"
           transform="matrix(0.26458333,0,0,0.26458333,-46.362377,-178.02442)">
          <path
             id="path4959"
             d="m 481,645 v 10.23824 m 10.23633,-10.32764 v 10.23824 m -10.26606,-4.6394 h 10.23085 m -5.06415,-5.51532 v 11.94985"
             inkscape:connector-curvature="0"
             style="fill:none;stroke:#000000;stroke-width:1.79999995" />
          <path
             id="path4961"
             d="m 488,659.5 a 1.8384377,1.8384377 0 0 1 -1.83844,1.83843 1.8384377,1.8384377 0 0 1 -1.83842,-1.83843 1.8384377,1.8384377 0 0 1 1.83842,-1.83844 A 1.8384377,1.8384377 0 0 1 488,659.5 Z"
             inkscape:connector-curvature="0"
             style="fill:none;stroke:#000000;stroke-width:1.79999995" />
        </g>
        <g
           id="g4967"
           style="overflow:hidden"
           transform="matrix(0.26458333,0,0,0.26458333,-56.973275,-165.97996)">
          <path
             id="path4965"
             d="m 570,602 1.77059,-2.36312 2.31872,1.8045 m -14.44264,-0.20006 2.34113,-1.77418 1.74085,2.38595 m -1.80013,-1.77265 c -1.23776,8.40975 0.82518,9.67121 4.95106,9.67121 4.12589,0 6.18883,-1.26146 4.95107,-9.67121 m -7.05334,3.17005 2.03997,-2.12559 2.08565,2.07903 m -5.32406,9.91162 h 6.60142 m -3.30071,-12.19414 v 15.55803"
             inkscape:connector-curvature="0"
             style="fill:none;stroke:#000000;stroke-width:1.79999995" />
        </g>
        <g
           id="g4973"
           style="overflow:hidden"
           transform="matrix(0.26458333,0,0,0.26458333,21.693359,-177.56472)">
          <path
             id="path4969"
             d="m 317,647 a 5.7676856,5.7676856 0 0 1 -2.88385,4.99496 5.7676856,5.7676856 0 0 1 -5.76768,0 A 5.7676856,5.7676856 0 0 1 305.46462,647 m 5.76771,13.93858 v -8.17088 m -3.84512,4.32576 h 7.69024"
             inkscape:connector-curvature="0"
             style="fill:none;stroke:#000000;stroke-width:1.79999995" />
          <path
             id="path4971"
             d="m 314.7,647 a 3.3644834,3.3644834 0 0 1 -3.36448,3.36449 A 3.3644834,3.3644834 0 0 1 307.97104,647 3.3644834,3.3644834 0 0 1 311.33552,643.63552 3.3644834,3.3644834 0 0 1 314.7,647 Z"
             inkscape:connector-curvature="0"
             style="fill:none;stroke:#000000;stroke-width:1.79999995" />
        </g>
        <g
           id="g4977"
           style="overflow:hidden"
           transform="matrix(0.26458333,0,0,0.26458333,55.635622,-58.847628)">
          <path
             id="path4975"
             d="m 221,204 -1.33333,-0.66667 H 219 L 217.66667,204 217,205.33333 V 206 l 0.66667,1.33333 L 219,208 h 0.66667 L 221,207.33333 221.66667,206 v -0.66667 L 221,204 l -2,-2.66667 -0.66667,-2 V 198 L 219,196 l 1.33333,-1.33333 2,-0.66667 H 225 l 2,0.66667 L 228.33333,196 229,198 v 1.33333 l -0.66667,2 -2,2.66667 -0.66666,1.33333 V 206 l 0.66666,1.33333 1.33334,0.66667 h 0.66666 l 1.33334,-0.66667 L 230.33333,206 v -0.66667 L 229.66667,204 l -1.33334,-0.66667 h -0.66666 L 226.33333,204 m -8,-6 0.66667,-1.33333 1.33333,-1.33334 2,-0.66666 H 225 l 2,0.66666 1.33333,1.33334 L 229,198"
             inkscape:connector-curvature="0"
             style="fill:none;stroke:#000000;stroke-width:1.79999995" />
        </g>
        <g
           id="g4981"
           style="overflow:hidden"
           transform="matrix(0.26458333,0,0,0.26458333,-28.05485,-163.50932)">
          <path
             id="path4979"
             d="m 582,595 -1.33333,-0.66667 H 580 L 578.66667,595 578,596.33333 V 597 l 0.66667,1.33333 L 580,599 h 0.66667 L 582,598.33333 582.66667,597 v -0.66667 L 582,595 l -2,-2.66667 -0.66667,-2 V 589 L 580,587 l 1.33333,-1.33333 2,-0.66667 H 586 l 2,0.66667 L 589.33333,587 590,589 v 1.33333 l -0.66667,2 -2,2.66667 -0.66666,1.33333 V 597 l 0.66666,1.33333 1.33334,0.66667 h 0.66666 l 1.33334,-0.66667 L 591.33333,597 v -0.66667 L 590.66667,595 l -1.33334,-0.66667 h -0.66666 L 587.33333,595 m -8,-6 0.66667,-1.33333 1.33333,-1.33334 2,-0.66666 H 586 l 2,0.66666 1.33333,1.33334 L 590,589"
             transform="rotate(180,582,595)"
             inkscape:connector-curvature="0"
             style="fill:none;stroke:#000000;stroke-width:1.79999995" />
        </g>
        <g
           transform="matrix(0.26458333,0,0,0.26458333,-157.64964,-71.413618)"
           style="overflow:hidden"
           id="g67">
          <path
             style="fill:none;stroke:#000000;stroke-width:1.79999995"
             inkscape:connector-curvature="0"
             d="m 620,243 -2.18182,0.72727 -2.18182,1.45454 -1.45455,2.18182 -0.72727,2.18182 v 2.18182 l 0.72727,2.18182 1.45455,2.18182 2.18182,1.45454 2.18182,0.72728 h 2.18181 l 2.18182,-0.72728 2.18182,-1.45454 1.45455,-2.18182 0.72727,-2.18182 v -2.18182 L 628,247.36363 626.54545,245.18181 624.36363,243.72727 622.18181,243 H 620 m 0.72727,6.54545 L 620,250.27273 V 251 l 0.72727,0.72727 h 0.72727 L 622.18181,251 v -0.72727 l -0.72727,-0.72728 h -0.72727 m 0,0.72728 V 251 h 0.72727 v -0.72727 h -0.72727"
             id="path65" />
        </g>
        <g
           transform="matrix(0.26458333,0,0,0.26458333,-176.52612,-67.659994)"
           style="overflow:hidden"
           id="g73">
          <path
             style="fill:none;stroke:#000000;stroke-width:1.79999995"
             inkscape:connector-curvature="0"
             d="m 649,305 a 7.4969283,7.4969283 0 0 1 0,14.32746 A 7.4969283,7.4969283 0 1 0 649,305 Z"
             id="path71" />
        </g>
        <g
           transform="matrix(0.26458333,0,0,0.26458333,-174.02351,-52.578597)"
           style="overflow:hidden"
           id="g79">
          <path
             style="fill:none;stroke:#000000;stroke-width:1.79999995"
             inkscape:connector-curvature="0"
             d="m 642,300 h 4.26011 m -2.13005,-2.98207 v 5.11213 m 4.70312,-9.7983 a 4.70315,4.70315 0 0 1 -4.70315,4.70314 4.70315,4.70315 0 0 1 -4.70314,-4.70314 4.70315,4.70315 0 0 1 4.70314,-4.70315 4.70315,4.70315 0 0 1 4.70315,4.70315 z"
             id="path75" />
          <path
             style="fill:none;stroke:#000000;stroke-width:1.79999995"
             inkscape:connector-curvature="0"
             d="m 648,284 a 3.9717855,3.9717855 0 0 1 -3.95541,3.59054 3.9717855,3.9717855 0 0 1 -3.95185,-3.59445"
             id="path77" />
        </g>
        <g
           transform="matrix(0.26458333,0,0,0.26458333,-139.68763,-7.0267683)"
           style="overflow:hidden"
           id="g83">
          <path
             style="fill:none;stroke:#000000;stroke-width:1.79999995"
             inkscape:connector-curvature="0"
             d="m 516,166 -4.93767,0.0397 m 2.44897,2.36461 v -5.79014 c -3.10954,-0.008 -5.62461,-2.53422 -5.62018,-5.64208 0.004,-3.10771 2.52651,-5.62169 5.63558,-5.62169 3.10907,0 5.63115,2.51398 5.63558,5.62169 0.004,3.10786 -2.51064,5.63358 -5.62019,5.64208"
             id="path81" />
        </g>
        <g
           transform="matrix(0.26458333,0,0,0.26458333,-150.5435,-3.6524428)"
           style="overflow:hidden"
           id="g87">
          <path
             style="fill:none;stroke:#000000;stroke-width:1.79999995"
             inkscape:connector-curvature="0"
             d="m 557,181 c -5.24744,-4.15062 -11.6993,3.20552 -7.01881,7.88601 4.6805,4.68048 12.03663,-1.77138 7.886,-7.01882 z m 0,0 0.4336,0.43359 3.99656,-4.21741 m -3.2398,-0.0552 h 3.29502 l 0.11042,3.6815"
             id="path85" />
        </g>
        <g
           transform="matrix(0.26458333,0,0,0.26458333,-138.70029,-114.93515)"
           style="overflow:hidden"
           id="g91">
          <path
             style="fill:none;stroke:#000000;stroke-width:1.79999995"
             inkscape:connector-curvature="0"
             d="m 505,641 c -0.43473,0 -1.30422,-0.40572 -1.30422,-2.02857 0,-1.62285 1.73897,-3.2457 3.47792,-3.2457 1.73897,0 3.47792,1.21715 3.47792,4.05713 0,2.83999 -2.1737,7.30283 -6.52108,7.30283 m 12.17269,0 h -12.60745 m 9.99902,-11.76567 v 15.82279"
             id="path89" />
        </g>
        <g
           transform="matrix(0.26458333,0,0,0.26458333,-92.244888,-109.56577)"
           style="overflow:hidden"
           id="g95">
          <path
             style="fill:none;stroke:#000000;stroke-width:1.79999995"
             inkscape:connector-curvature="0"
             d="m 338,668 c -0.52222,0.52221 -1.04445,1.04444 -1.56666,1.04444 -0.52222,0 -1.56667,-0.52223 -1.56667,-1.56667 0,-1.04443 0.52223,-2.08887 1.56667,-3.13332 1.04444,-1.04443 2.08888,-3.13331 2.08888,-5.22219 0,-2.08888 -1.04444,-4.17776 -3.13332,-4.17776 -1.97566,0 -3.65555,1.04444 -4.69998,3.13333 m -2.55515,-5.87499 h 6.26664 m -3.71149,-2.48054 v 15.14438"
             id="path93" />
        </g>
        <g
           transform="matrix(0.26458333,0,0,0.26458333,-132.72997,-97.704427)"
           style="overflow:hidden"
           id="g101">
          <path
             style="fill:none;stroke:#000000;stroke-width:1.79999995"
             inkscape:connector-curvature="0"
             d="m 481,645 v 10.23824 m 10.23633,-10.32764 v 10.23824 m -10.26606,-4.6394 h 10.23085 m -5.06415,-5.51532 v 11.94985"
             id="path97" />
          <path
             style="fill:none;stroke:#000000;stroke-width:1.79999995"
             inkscape:connector-curvature="0"
             d="m 488,659.5 a 1.8384377,1.8384377 0 0 1 -1.83844,1.83843 1.8384377,1.8384377 0 0 1 -1.83842,-1.83843 1.8384377,1.8384377 0 0 1 1.83842,-1.83844 A 1.8384377,1.8384377 0 0 1 488,659.5 Z"
             id="path99" />
        </g>
        <g
           transform="matrix(0.26458333,0,0,0.26458333,-154.11321,-75.832595)"
           style="overflow:hidden"
           id="g105">
          <path
             style="fill:none;stroke:#000000;stroke-width:1.79999995"
             inkscape:connector-curvature="0"
             d="m 570,602 1.77059,-2.36312 2.31872,1.8045 m -14.44264,-0.20006 2.34113,-1.77418 1.74085,2.38595 m -1.80013,-1.77265 c -1.23776,8.40975 0.82518,9.67121 4.95106,9.67121 4.12589,0 6.18883,-1.26146 4.95107,-9.67121 m -7.05334,3.17005 2.03997,-2.12559 2.08565,2.07903 m -5.32406,9.91162 h 6.60142 m -3.30071,-12.19414 v 15.55803"
             id="path103" />
        </g>
        <g
           transform="matrix(0.26458333,0,0,0.26458333,-86.596824,-77.098563)"
           style="overflow:hidden"
           id="g111">
          <path
             style="fill:none;stroke:#000000;stroke-width:1.79999995"
             inkscape:connector-curvature="0"
             d="m 317,647 a 5.7676856,5.7676856 0 0 1 -2.88385,4.99496 5.7676856,5.7676856 0 0 1 -5.76768,0 A 5.7676856,5.7676856 0 0 1 305.46462,647 m 5.76771,13.93858 v -8.17088 m -3.84512,4.32576 h 7.69024"
             id="path107" />
          <path
             style="fill:none;stroke:#000000;stroke-width:1.79999995"
             inkscape:connector-curvature="0"
             d="m 314.7,647 a 3.3644834,3.3644834 0 0 1 -3.36448,3.36449 A 3.3644834,3.3644834 0 0 1 307.97104,647 3.3644834,3.3644834 0 0 1 311.33552,643.63552 3.3644834,3.3644834 0 0 1 314.7,647 Z"
             id="path109" />
        </g>
        <g
           transform="matrix(0.26458333,0,0,0.26458333,-63.426885,51.899402)"
           style="overflow:hidden"
           id="g115">
          <path
             style="fill:none;stroke:#000000;stroke-width:1.79999995"
             inkscape:connector-curvature="0"
             d="m 221,204 -1.33333,-0.66667 H 219 L 217.66667,204 217,205.33333 V 206 l 0.66667,1.33333 L 219,208 h 0.66667 L 221,207.33333 221.66667,206 v -0.66667 L 221,204 l -2,-2.66667 -0.66667,-2 V 198 L 219,196 l 1.33333,-1.33333 2,-0.66667 H 225 l 2,0.66667 L 228.33333,196 229,198 v 1.33333 l -0.66667,2 -2,2.66667 -0.66666,1.33333 V 206 l 0.66666,1.33333 1.33334,0.66667 h 0.66666 l 1.33334,-0.66667 L 230.33333,206 v -0.66667 L 229.66667,204 l -1.33334,-0.66667 h -0.66666 L 226.33333,204 m -8,-6 0.66667,-1.33333 1.33333,-1.33334 2,-0.66666 H 225 l 2,0.66666 1.33333,1.33334 L 229,198"
             id="path113" />
        </g>
        <g
           transform="matrix(0.26458333,0,0,0.26458333,-157.51176,-43.123859)"
           style="overflow:hidden"
           id="g119">
          <path
             style="fill:none;stroke:#000000;stroke-width:1.79999995"
             inkscape:connector-curvature="0"
             transform="rotate(180,582,595)"
             d="m 582,595 -1.33333,-0.66667 H 580 L 578.66667,595 578,596.33333 V 597 l 0.66667,1.33333 L 580,599 h 0.66667 L 582,598.33333 582.66667,597 v -0.66667 L 582,595 l -2,-2.66667 -0.66667,-2 V 589 L 580,587 l 1.33333,-1.33333 2,-0.66667 H 586 l 2,0.66667 L 589.33333,587 590,589 v 1.33333 l -0.66667,2 -2,2.66667 -0.66666,1.33333 V 597 l 0.66666,1.33333 1.33334,0.66667 h 0.66666 l 1.33334,-0.66667 L 591.33333,597 v -0.66667 L 590.66667,595 l -1.33334,-0.66667 h -0.66666 L 587.33333,595 m -8,-6 0.66667,-1.33333 1.33333,-1.33334 2,-0.66666 H 586 l 2,0.66666 1.33333,1.33334 L 590,589"
             id="path117" />
        </g>
      </g>
    </g>
  </g>
</svg>
